<?xml version="1.0" encoding="UTF-8" standalone="no"?>
<!DOCTYPE svg PUBLIC "-//W3C//DTD SVG 1.1//EN"
 "http://www.w3.org/Graphics/SVG/1.1/DTD/svg11.dtd">
<!-- Generated by graphviz version 2.38.0 (20140413.2041)
 -->
<!-- Title: %3 Pages: 1 -->
<svg width="783pt" height="1219pt"
 viewBox="0.00 0.00 782.50 1219.00" xmlns="http://www.w3.org/2000/svg" xmlns:xlink="http://www.w3.org/1999/xlink">
<g id="graph0" class="graph" transform="scale(1 1) rotate(0) translate(4 1215)">
<title>%3</title>
<polygon fill="white" stroke="none" points="-4,4 -4,-1215 778.5,-1215 778.5,4 -4,4"/>
<!-- CEC line 5 -->
<g id="node1" class="node"><title>CEC line 5</title>
<path fill="lightgray" stroke="lightgray" d="M369,-1211C369,-1211 268,-1211 268,-1211 262,-1211 256,-1205 256,-1199 256,-1199 256,-1048 256,-1048 256,-1042 262,-1036 268,-1036 268,-1036 369,-1036 369,-1036 375,-1036 381,-1042 381,-1048 381,-1048 381,-1199 381,-1199 381,-1205 375,-1211 369,-1211"/>
<text text-anchor="start" x="264" y="-1196.8" font-family="sans-serif" font-size="14.00">CEC line 5</text>
<text text-anchor="start" x="264" y="-1186.8" font-family="sans-serif" font-style="italic" font-size="9.00">Control signal line 5.1</text>
<text text-anchor="start" x="264" y="-1177.8" font-family="sans-serif" font-style="italic" font-size="9.00">Free 5.1</text>
<text text-anchor="start" x="264" y="-1168.8" font-family="sans-serif" font-style="italic" font-size="9.00">Test 5.1</text>
<text text-anchor="start" x="264" y="-1159.8" font-family="sans-serif" font-style="italic" font-size="9.00">High impedance 5.2.1</text>
<text text-anchor="start" x="264" y="-1150.8" font-family="sans-serif" font-style="italic" font-size="9.00">Low impedance 5.2.1</text>
<text text-anchor="start" x="264" y="-1141.8" font-family="sans-serif" font-style="italic" font-size="9.00">High to low transition 5.1</text>
<text text-anchor="start" x="264" y="-1132.8" font-family="sans-serif" font-style="italic" font-size="9.00">Pulses 5.1</text>
<text text-anchor="start" x="264" y="-1123.8" font-family="sans-serif" font-style="italic" font-size="9.00">Pulling 5.2.2</text>
<text text-anchor="start" x="264" y="-1114.8" font-family="sans-serif" font-style="italic" font-size="9.00">Error Handling 7.4</text>
<text text-anchor="start" x="264" y="-1105.8" font-family="sans-serif" font-style="italic" font-size="9.00">Error checking 7.4</text>
<text text-anchor="start" x="264" y="-1096.8" font-family="sans-serif" font-style="italic" font-size="9.00">Spurious pulses 7.4</text>
<text text-anchor="start" x="264" y="-1087.8" font-family="sans-serif" font-style="italic" font-size="9.00">Low bit period 7.4</text>
<text text-anchor="start" x="264" y="-1078.8" font-family="sans-serif" font-style="italic" font-size="9.00">Inactive 9</text>
<text text-anchor="start" x="264" y="-1069.8" font-family="sans-serif" font-style="italic" font-size="9.00">Signal free time (period) 9</text>
<text text-anchor="start" x="264" y="-1060.8" font-family="sans-serif" font-style="italic" font-size="9.00">Monitor 9</text>
<text text-anchor="start" x="264" y="-1051.8" font-family="sans-serif" font-style="italic" font-size="9.00">Access 9.1</text>
<text text-anchor="start" x="264" y="-1042.8" font-family="sans-serif" font-style="italic" font-size="9.00">System 10.2</text>
</g>
<!-- Transaction 5 -->
<g id="node2" class="node"><title>Transaction 5</title>
<path fill="lightgray" stroke="lightgray" d="M557,-948.5C557,-948.5 480,-948.5 480,-948.5 474,-948.5 468,-942.5 468,-936.5 468,-936.5 468,-924.5 468,-924.5 468,-918.5 474,-912.5 480,-912.5 480,-912.5 557,-912.5 557,-912.5 563,-912.5 569,-918.5 569,-924.5 569,-924.5 569,-936.5 569,-936.5 569,-942.5 563,-948.5 557,-948.5"/>
<text text-anchor="start" x="476" y="-926.8" font-family="sans-serif" font-size="14.00">Transaction 5</text>
</g>
<!-- CEC line 5&#45;&#45;Transaction 5 -->
<g id="edge1" class="edge"><title>CEC line 5&#45;&#45;Transaction 5</title>
<path fill="none" stroke="black" d="M381.143,-1068.11C404.569,-1047.24 431.146,-1022.93 454.5,-1000 471.687,-983.124 490.392,-962.866 503.116,-948.777"/>
</g>
<!-- Arbitration 5.1 -->
<g id="node12" class="node"><title>Arbitration 5.1</title>
<path fill="lightgray" stroke="lightgray" d="M160.5,-964C160.5,-964 78.5,-964 78.5,-964 72.5,-964 66.5,-958 66.5,-952 66.5,-952 66.5,-909 66.5,-909 66.5,-903 72.5,-897 78.5,-897 78.5,-897 160.5,-897 160.5,-897 166.5,-897 172.5,-903 172.5,-909 172.5,-909 172.5,-952 172.5,-952 172.5,-958 166.5,-964 160.5,-964"/>
<text text-anchor="start" x="74.5" y="-949.8" font-family="sans-serif" font-size="14.00">Arbitration 5.1</text>
<text text-anchor="start" x="74.5" y="-939.8" font-family="sans-serif" font-style="italic" font-size="9.00">Mechanism 5.1</text>
<text text-anchor="start" x="74.5" y="-930.8" font-family="sans-serif" font-style="italic" font-size="9.00">Conflict 5.1</text>
<text text-anchor="start" x="74.5" y="-921.8" font-family="sans-serif" font-style="italic" font-size="9.00">Collisions 9</text>
<text text-anchor="start" x="74.5" y="-912.8" font-family="sans-serif" font-style="italic" font-size="9.00">Commences 9</text>
<text text-anchor="start" x="74.5" y="-903.8" font-family="sans-serif" font-style="italic" font-size="9.00">Lost 9</text>
</g>
<!-- CEC line 5&#45;&#45;Arbitration 5.1 -->
<g id="edge11" class="edge"><title>CEC line 5&#45;&#45;Arbitration 5.1</title>
<path fill="none" stroke="black" d="M255.868,-1066.23C233.402,-1045.67 208.058,-1022.06 185.5,-1000 173.81,-988.57 161.291,-975.736 150.333,-964.294"/>
</g>
<!-- Initiator 2.2 -->
<g id="node3" class="node"><title>Initiator 2.2</title>
<path fill="lightgray" stroke="lightgray" d="M527.5,-802.5C527.5,-802.5 453.5,-802.5 453.5,-802.5 447.5,-802.5 441.5,-796.5 441.5,-790.5 441.5,-790.5 441.5,-702.5 441.5,-702.5 441.5,-696.5 447.5,-690.5 453.5,-690.5 453.5,-690.5 527.5,-690.5 527.5,-690.5 533.5,-690.5 539.5,-696.5 539.5,-702.5 539.5,-702.5 539.5,-790.5 539.5,-790.5 539.5,-796.5 533.5,-802.5 527.5,-802.5"/>
<text text-anchor="start" x="449.5" y="-788.3" font-family="sans-serif" font-size="14.00">Initiator 2.2</text>
<text text-anchor="start" x="449.5" y="-778.3" font-family="sans-serif" font-style="italic" font-size="9.00">Sender</text>
<text text-anchor="start" x="449.5" y="-769.3" font-family="sans-serif" font-style="italic" font-size="9.00">Sending 5</text>
<text text-anchor="start" x="449.5" y="-760.3" font-family="sans-serif" font-style="italic" font-size="9.00">Generates 5.1</text>
<text text-anchor="start" x="449.5" y="-751.3" font-family="sans-serif" font-style="italic" font-size="9.00">Transmitting 5.1</text>
<text text-anchor="start" x="449.5" y="-742.3" font-family="sans-serif" font-style="italic" font-size="9.00">Asserted bit 5.2.2</text>
<text text-anchor="start" x="449.5" y="-733.3" font-family="sans-serif" font-style="italic" font-size="9.00">Outputs 5.2.2</text>
<text text-anchor="start" x="449.5" y="-724.3" font-family="sans-serif" font-style="italic" font-size="9.00">Reads 6.2.1</text>
<text text-anchor="start" x="449.5" y="-715.3" font-family="sans-serif" font-style="italic" font-size="9.00">Become follower 9</text>
<text text-anchor="start" x="449.5" y="-706.3" font-family="sans-serif" font-style="italic" font-size="9.00">Second initiator 9</text>
<text text-anchor="start" x="449.5" y="-697.3" font-family="sans-serif" font-style="italic" font-size="9.00">Initiating device 9.1</text>
</g>
<!-- Transaction 5&#45;&#45;Initiator 2.2 -->
<g id="edge2" class="edge"><title>Transaction 5&#45;&#45;Initiator 2.2</title>
<path fill="none" stroke="black" d="M515.866,-912.378C512.04,-887.512 504.773,-840.277 498.995,-802.717"/>
</g>
<!-- Followers 2.2 -->
<g id="node4" class="node"><title>Followers 2.2</title>
<path fill="lightgray" stroke="lightgray" d="M403.5,-820.5C403.5,-820.5 295.5,-820.5 295.5,-820.5 289.5,-820.5 283.5,-814.5 283.5,-808.5 283.5,-808.5 283.5,-684.5 283.5,-684.5 283.5,-678.5 289.5,-672.5 295.5,-672.5 295.5,-672.5 403.5,-672.5 403.5,-672.5 409.5,-672.5 415.5,-678.5 415.5,-684.5 415.5,-684.5 415.5,-808.5 415.5,-808.5 415.5,-814.5 409.5,-820.5 403.5,-820.5"/>
<text text-anchor="start" x="291.5" y="-806.3" font-family="sans-serif" font-size="14.00">Followers 2.2</text>
<text text-anchor="start" x="291.5" y="-796.3" font-family="sans-serif" font-style="italic" font-size="9.00">Destination 2.2</text>
<text text-anchor="start" x="291.5" y="-787.3" font-family="sans-serif" font-style="italic" font-size="9.00">Receive 2.2</text>
<text text-anchor="start" x="291.5" y="-778.3" font-family="sans-serif" font-style="italic" font-size="9.00">Respond 2.2</text>
<text text-anchor="start" x="291.5" y="-769.3" font-family="sans-serif" font-style="italic" font-size="9.00">Recipient 5</text>
<text text-anchor="start" x="291.5" y="-760.3" font-family="sans-serif" font-style="italic" font-size="9.00">Asserted bit 5.2.2</text>
<text text-anchor="start" x="291.5" y="-751.3" font-family="sans-serif" font-style="italic" font-size="9.00">Generates 6.1.2</text>
<text text-anchor="start" x="291.5" y="-742.3" font-family="sans-serif" font-style="italic" font-size="9.00">Acknowledge 6.2.1</text>
<text text-anchor="start" x="291.5" y="-733.3" font-family="sans-serif" font-style="italic" font-size="9.00">Negatively acknowledge 7.2</text>
<text text-anchor="start" x="291.5" y="-724.3" font-family="sans-serif" font-style="italic" font-size="9.00">Reads 6.2.1</text>
<text text-anchor="start" x="291.5" y="-715.3" font-family="sans-serif" font-style="italic" font-size="9.00">Reject the message 6.2.1</text>
<text text-anchor="start" x="291.5" y="-706.3" font-family="sans-serif" font-style="italic" font-size="9.00">Receiving device 7</text>
<text text-anchor="start" x="291.5" y="-697.3" font-family="sans-serif" font-style="italic" font-size="9.00">Flow Control 7.2</text>
<text text-anchor="start" x="291.5" y="-688.3" font-family="sans-serif" font-style="italic" font-size="9.00">Notify 7.4</text>
<text text-anchor="start" x="291.5" y="-679.3" font-family="sans-serif" font-style="italic" font-size="9.00">Node 8</text>
</g>
<!-- Transaction 5&#45;&#45;Followers 2.2 -->
<g id="edge3" class="edge"><title>Transaction 5&#45;&#45;Followers 2.2</title>
<path fill="none" stroke="black" d="M502.601,-912.378C482.716,-890.964 447.425,-852.958 415.734,-818.829"/>
</g>
<!-- Message 2.2 -->
<g id="node5" class="node"><title>Message 2.2</title>
<path fill="lightgray" stroke="lightgray" d="M729.5,-825C729.5,-825 577.5,-825 577.5,-825 571.5,-825 565.5,-819 565.5,-813 565.5,-813 565.5,-680 565.5,-680 565.5,-674 571.5,-668 577.5,-668 577.5,-668 729.5,-668 729.5,-668 735.5,-668 741.5,-674 741.5,-680 741.5,-680 741.5,-813 741.5,-813 741.5,-819 735.5,-825 729.5,-825"/>
<text text-anchor="start" x="573.5" y="-810.8" font-family="sans-serif" font-size="14.00">Message 2.2</text>
<text text-anchor="start" x="573.5" y="-800.8" font-family="sans-serif" font-style="italic" font-size="9.00">Broadcast message 2.2</text>
<text text-anchor="start" x="573.5" y="-791.8" font-family="sans-serif" font-style="italic" font-size="9.00">Directly addressed message 7.1</text>
<text text-anchor="start" x="573.5" y="-782.8" font-family="sans-serif" font-style="italic" font-size="9.00">Addressed 6.1.2</text>
<text text-anchor="start" x="573.5" y="-773.8" font-family="sans-serif" font-style="italic" font-size="9.00">Success 7</text>
<text text-anchor="start" x="573.5" y="-764.8" font-family="sans-serif" font-style="italic" font-size="9.00">Transfer 7</text>
<text text-anchor="start" x="573.5" y="-755.8" font-family="sans-serif" font-style="italic" font-size="9.00">Transmitted 7</text>
<text text-anchor="start" x="573.5" y="-746.8" font-family="sans-serif" font-style="italic" font-size="9.00">Acknowledged 7</text>
<text text-anchor="start" x="573.5" y="-737.8" font-family="sans-serif" font-style="italic" font-size="9.00">Received 7</text>
<text text-anchor="start" x="573.5" y="-728.8" font-family="sans-serif" font-style="italic" font-size="9.00">Acted upon 7</text>
<text text-anchor="start" x="573.5" y="-719.8" font-family="sans-serif" font-style="italic" font-size="9.00">Layer 9</text>
<text text-anchor="start" x="573.5" y="-710.8" font-family="sans-serif" font-style="italic" font-size="9.00">Send 9</text>
<text text-anchor="start" x="573.5" y="-701.8" font-family="sans-serif" font-style="italic" font-size="9.00">Time Constraints (application level) 9.2</text>
<text text-anchor="start" x="573.5" y="-692.8" font-family="sans-serif" font-style="italic" font-size="9.00">Response (time) 9.2</text>
<text text-anchor="start" x="573.5" y="-683.8" font-family="sans-serif" font-style="italic" font-size="9.00">Mandatory 10.2</text>
<text text-anchor="start" x="573.5" y="-674.8" font-family="sans-serif" font-style="italic" font-size="9.00">Generate 13.10.2</text>
</g>
<!-- Transaction 5&#45;&#45;Message 2.2 -->
<g id="edge4" class="edge"><title>Transaction 5&#45;&#45;Message 2.2</title>
<path fill="none" stroke="black" d="M531.2,-912.378C546.1,-892.291 571.828,-857.606 595.854,-825.215"/>
</g>
<!-- Structure 5 -->
<g id="node6" class="node"><title>Structure 5</title>
<path fill="lightgray" stroke="lightgray" d="M529.5,-596C529.5,-596 461.5,-596 461.5,-596 455.5,-596 449.5,-590 449.5,-584 449.5,-584 449.5,-568 449.5,-568 449.5,-562 455.5,-556 461.5,-556 461.5,-556 529.5,-556 529.5,-556 535.5,-556 541.5,-562 541.5,-568 541.5,-568 541.5,-584 541.5,-584 541.5,-590 535.5,-596 529.5,-596"/>
<text text-anchor="start" x="457.5" y="-581.8" font-family="sans-serif" font-size="14.00">Structure 5</text>
<text text-anchor="start" x="457.5" y="-571.8" font-family="sans-serif" font-style="italic" font-size="9.00">Timing 5.1</text>
<text text-anchor="start" x="457.5" y="-562.8" font-family="sans-serif" font-style="italic" font-size="9.00">Leading edges 5.1</text>
</g>
<!-- Initiator 2.2&#45;&#45;Structure 5 -->
<g id="edge5" class="edge"><title>Initiator 2.2&#45;&#45;Structure 5</title>
<path fill="none" stroke="black" d="M492.137,-690.327C493.1,-657.886 494.257,-618.888 494.932,-596.129"/>
</g>
<!-- ACK 6.1.2 -->
<g id="node7" class="node"><title>ACK 6.1.2</title>
<path fill="lightgray" stroke="lightgray" d="M442,-40C442,-40 347,-40 347,-40 341,-40 335,-34 335,-28 335,-28 335,-12 335,-12 335,-6 341,-0 347,-0 347,-0 442,-0 442,-0 448,-0 454,-6 454,-12 454,-12 454,-28 454,-28 454,-34 448,-40 442,-40"/>
<text text-anchor="start" x="343" y="-25.8" font-family="sans-serif" font-size="14.00">ACK 6.1.2</text>
<text text-anchor="start" x="343" y="-15.8" font-family="sans-serif" font-style="italic" font-size="9.00">Acknowledge 6.1.2</text>
<text text-anchor="start" x="343" y="-6.8" font-family="sans-serif" font-style="italic" font-size="9.00">Acknowledgement bits 5</text>
</g>
<!-- Followers 2.2&#45;&#45;ACK 6.1.2 -->
<g id="edge6" class="edge"><title>Followers 2.2&#45;&#45;ACK 6.1.2</title>
<path fill="none" stroke="black" d="M349.5,-672.193C349.5,-607.131 349.5,-509.487 349.5,-424.5 349.5,-424.5 349.5,-424.5 349.5,-243 349.5,-167.814 358.753,-149.062 376.5,-76 379.441,-63.8938 383.756,-50.6114 387.424,-40.1326"/>
</g>
<!-- Frame 5.1 -->
<g id="node8" class="node"><title>Frame 5.1</title>
<path fill="lightgray" stroke="lightgray" d="M704,-632C704,-632 591,-632 591,-632 585,-632 579,-626 579,-620 579,-620 579,-532 579,-532 579,-526 585,-520 591,-520 591,-520 704,-520 704,-520 710,-520 716,-526 716,-532 716,-532 716,-620 716,-620 716,-626 710,-632 704,-632"/>
<text text-anchor="start" x="587" y="-617.8" font-family="sans-serif" font-size="14.00">Frame 5.1</text>
<text text-anchor="start" x="587" y="-607.8" font-family="sans-serif" font-style="italic" font-size="9.00">Transfer 7</text>
<text text-anchor="start" x="587" y="-598.8" font-family="sans-serif" font-style="italic" font-size="9.00">Re&#45;transmissions (attempt) 7</text>
<text text-anchor="start" x="587" y="-589.8" font-family="sans-serif" font-style="italic" font-size="9.00">Validation 7</text>
<text text-anchor="start" x="587" y="-580.8" font-family="sans-serif" font-style="italic" font-size="9.00">Valid 7</text>
<text text-anchor="start" x="587" y="-571.8" font-family="sans-serif" font-style="italic" font-size="9.00">Acknowledged 7.1</text>
<text text-anchor="start" x="587" y="-562.8" font-family="sans-serif" font-style="italic" font-size="9.00">Negatively acknowledged 7.1</text>
<text text-anchor="start" x="587" y="-553.8" font-family="sans-serif" font-style="italic" font-size="9.00">Re&#45;try 7.1</text>
<text text-anchor="start" x="587" y="-544.8" font-family="sans-serif" font-style="italic" font-size="9.00">Send 7.4</text>
<text text-anchor="start" x="587" y="-535.8" font-family="sans-serif" font-style="italic" font-size="9.00">Transmit 9</text>
<text text-anchor="start" x="587" y="-526.8" font-family="sans-serif" font-style="italic" font-size="9.00">Success 9.1</text>
</g>
<!-- Message 2.2&#45;&#45;Frame 5.1 -->
<g id="edge7" class="edge"><title>Message 2.2&#45;&#45;Frame 5.1</title>
<path fill="none" stroke="black" d="M650.728,-667.662C650.305,-655.762 649.875,-643.691 649.473,-632.405"/>
</g>
<!-- Blocks 6 -->
<g id="node13" class="node"><title>Blocks 6</title>
<path fill="lightgray" stroke="lightgray" d="M615.5,-484C615.5,-484 547.5,-484 547.5,-484 541.5,-484 535.5,-478 535.5,-472 535.5,-472 535.5,-375 535.5,-375 535.5,-369 541.5,-363 547.5,-363 547.5,-363 615.5,-363 615.5,-363 621.5,-363 627.5,-369 627.5,-375 627.5,-375 627.5,-472 627.5,-472 627.5,-478 621.5,-484 615.5,-484"/>
<text text-anchor="start" x="543.5" y="-469.8" font-family="sans-serif" font-size="14.00">Blocks 6</text>
<text text-anchor="start" x="543.5" y="-459.8" font-family="sans-serif" font-style="italic" font-size="9.00">Start 6</text>
<text text-anchor="start" x="543.5" y="-450.8" font-family="sans-serif" font-style="italic" font-size="9.00">Header 6</text>
<text text-anchor="start" x="543.5" y="-441.8" font-family="sans-serif" font-style="italic" font-size="9.00">Data 6</text>
<text text-anchor="start" x="543.5" y="-432.8" font-family="sans-serif" font-style="italic" font-size="9.00">Opcode 6</text>
<text text-anchor="start" x="543.5" y="-423.8" font-family="sans-serif" font-style="italic" font-size="9.00">Operand 6</text>
<text text-anchor="start" x="543.5" y="-414.8" font-family="sans-serif" font-style="italic" font-size="9.00">Structure 6.1</text>
<text text-anchor="start" x="543.5" y="-405.8" font-family="sans-serif" font-style="italic" font-size="9.00">Final 6.1.1</text>
<text text-anchor="start" x="543.5" y="-396.8" font-family="sans-serif" font-style="italic" font-size="9.00">Field 6.1.2</text>
<text text-anchor="start" x="543.5" y="-387.8" font-family="sans-serif" font-style="italic" font-size="9.00">Success 6.1.2</text>
<text text-anchor="start" x="543.5" y="-378.8" font-family="sans-serif" font-style="italic" font-size="9.00">Transmission 6.1.2</text>
<text text-anchor="start" x="543.5" y="-369.8" font-family="sans-serif" font-style="italic" font-size="9.00">Process 7.2</text>
</g>
<!-- Structure 5&#45;&#45;Blocks 6 -->
<g id="edge20" class="edge"><title>Structure 5&#45;&#45;Blocks 6</title>
<path fill="none" stroke="black" d="M506.392,-555.939C516.697,-537.905 532.718,-509.868 547.321,-484.313"/>
</g>
<!-- Frame 5.1&#45;&#45;Blocks 6 -->
<g id="edge13" class="edge"><title>Frame 5.1&#45;&#45;Blocks 6</title>
<path fill="none" stroke="black" d="M623.299,-519.814C618.222,-508.237 612.845,-495.976 607.699,-484.242"/>
</g>
<!-- Start bit 5.1 -->
<g id="node9" class="node"><title>Start bit 5.1</title>
<path fill="lightgray" stroke="lightgray" d="M477,-125C477,-125 402,-125 402,-125 396,-125 390,-119 390,-113 390,-113 390,-88 390,-88 390,-82 396,-76 402,-76 402,-76 477,-76 477,-76 483,-76 489,-82 489,-88 489,-88 489,-113 489,-113 489,-119 483,-125 477,-125"/>
<text text-anchor="start" x="398" y="-110.8" font-family="sans-serif" font-size="14.00">Start bit 5.1</text>
<text text-anchor="start" x="398" y="-100.8" font-family="sans-serif" font-style="italic" font-size="9.00">Validated 5.2.1</text>
<text text-anchor="start" x="398" y="-91.8" font-family="sans-serif" font-style="italic" font-size="9.00">Low duration 5.2.1</text>
<text text-anchor="start" x="398" y="-82.8" font-family="sans-serif" font-style="italic" font-size="9.00">Total duration 5.2.1</text>
</g>
<!-- Data bits 5.1 -->
<g id="node10" class="node"><title>Data bits 5.1</title>
<path fill="lightgray" stroke="lightgray" d="M629.5,-125C629.5,-125 527.5,-125 527.5,-125 521.5,-125 515.5,-119 515.5,-113 515.5,-113 515.5,-88 515.5,-88 515.5,-82 521.5,-76 527.5,-76 527.5,-76 629.5,-76 629.5,-76 635.5,-76 641.5,-82 641.5,-88 641.5,-88 641.5,-113 641.5,-113 641.5,-119 635.5,-125 629.5,-125"/>
<text text-anchor="start" x="523.5" y="-110.8" font-family="sans-serif" font-size="14.00">Data bits 5.1</text>
<text text-anchor="start" x="523.5" y="-100.8" font-family="sans-serif" font-style="italic" font-size="9.00">Consistent timing 5.2.2</text>
<text text-anchor="start" x="523.5" y="-91.8" font-family="sans-serif" font-style="italic" font-size="9.00">Initiator asserted bit 5.2.2</text>
<text text-anchor="start" x="523.5" y="-82.8" font-family="sans-serif" font-style="italic" font-size="9.00">Follower asserted bit 5.2.2</text>
</g>
<!-- Data bits 5.1&#45;&#45;ACK 6.1.2 -->
<g id="edge12" class="edge"><title>Data bits 5.1&#45;&#45;ACK 6.1.2</title>
<path fill="none" stroke="black" d="M523.294,-75.9474C496.406,-64.4764 464.499,-50.8637 439.17,-40.0574"/>
</g>
<!-- EOM -->
<g id="node14" class="node"><title>EOM</title>
<path fill="lightgray" stroke="lightgray" d="M596.5,-38C596.5,-38 514.5,-38 514.5,-38 508.5,-38 502.5,-32 502.5,-26 502.5,-26 502.5,-14 502.5,-14 502.5,-8 508.5,-2 514.5,-2 514.5,-2 596.5,-2 596.5,-2 602.5,-2 608.5,-8 608.5,-14 608.5,-14 608.5,-26 608.5,-26 608.5,-32 602.5,-38 596.5,-38"/>
<text text-anchor="start" x="510.5" y="-21.3" font-family="sans-serif" font-size="14.00">EOM</text>
<text text-anchor="start" x="510.5" y="-11.3" font-family="sans-serif" font-style="italic" font-size="9.00">End of Message 6.1.1</text>
</g>
<!-- Data bits 5.1&#45;&#45;EOM -->
<g id="edge18" class="edge"><title>Data bits 5.1&#45;&#45;EOM</title>
<path fill="none" stroke="black" d="M571.599,-75.9474C568.053,-63.8441 563.808,-49.3566 560.568,-38.297"/>
</g>
<!-- Information bits 6.1 -->
<g id="node17" class="node"><title>Information bits 6.1</title>
<path fill="lightgray" stroke="lightgray" d="M762.5,-38C762.5,-38 646.5,-38 646.5,-38 640.5,-38 634.5,-32 634.5,-26 634.5,-26 634.5,-14 634.5,-14 634.5,-8 640.5,-2 646.5,-2 646.5,-2 762.5,-2 762.5,-2 768.5,-2 774.5,-8 774.5,-14 774.5,-14 774.5,-26 774.5,-26 774.5,-32 768.5,-38 762.5,-38"/>
<text text-anchor="start" x="642.5" y="-16.3" font-family="sans-serif" font-size="14.00">Information bits 6.1</text>
</g>
<!-- Data bits 5.1&#45;&#45;Information bits 6.1 -->
<g id="edge19" class="edge"><title>Data bits 5.1&#45;&#45;Information bits 6.1</title>
<path fill="none" stroke="black" d="M616.304,-75.9474C635.876,-63.7538 659.332,-49.1403 677.133,-38.05"/>
</g>
<!-- Bits 5 -->
<g id="node11" class="node"><title>Bits 5</title>
<path fill="lightgray" stroke="lightgray" d="M589,-327C589,-327 488,-327 488,-327 482,-327 476,-321 476,-315 476,-315 476,-173 476,-173 476,-167 482,-161 488,-161 488,-161 589,-161 589,-161 595,-161 601,-167 601,-173 601,-173 601,-315 601,-315 601,-321 595,-327 589,-327"/>
<text text-anchor="start" x="484" y="-312.8" font-family="sans-serif" font-size="14.00">Bits 5</text>
<text text-anchor="start" x="484" y="-302.8" font-family="sans-serif" font-style="italic" font-size="9.00">Timing 1</text>
<text text-anchor="start" x="484" y="-293.8" font-family="sans-serif" font-style="italic" font-size="9.00">Following data bit 5.2.2</text>
<text text-anchor="start" x="484" y="-284.8" font-family="sans-serif" font-style="italic" font-size="9.00">Transmission 5.2.2</text>
<text text-anchor="start" x="484" y="-275.8" font-family="sans-serif" font-style="italic" font-size="9.00">Safe sample period 5.2.2</text>
<text text-anchor="start" x="484" y="-266.8" font-family="sans-serif" font-style="italic" font-size="9.00">Nominal sample time 5.2.2</text>
<text text-anchor="start" x="484" y="-257.8" font-family="sans-serif" font-style="italic" font-size="9.00">Start event 5.2.2</text>
<text text-anchor="start" x="484" y="-248.8" font-family="sans-serif" font-style="italic" font-size="9.00">State 5.2.2</text>
<text text-anchor="start" x="484" y="-239.8" font-family="sans-serif" font-style="italic" font-size="9.00">Logical 0 5.2.2</text>
<text text-anchor="start" x="484" y="-230.8" font-family="sans-serif" font-style="italic" font-size="9.00">Logical 1 5.2.2</text>
<text text-anchor="start" x="484" y="-221.8" font-family="sans-serif" font-style="italic" font-size="9.00">Period 5.2.2</text>
<text text-anchor="start" x="484" y="-212.8" font-family="sans-serif" font-style="italic" font-size="9.00">Indicate 6.1.1</text>
<text text-anchor="start" x="484" y="-203.8" font-family="sans-serif" font-style="italic" font-size="9.00">Specifies 6.1.1</text>
<text text-anchor="start" x="484" y="-194.8" font-family="sans-serif" font-style="italic" font-size="9.00">Set 6.1.2</text>
<text text-anchor="start" x="484" y="-185.8" font-family="sans-serif" font-style="italic" font-size="9.00">Valid 7.4</text>
<text text-anchor="start" x="484" y="-176.8" font-family="sans-serif" font-style="italic" font-size="9.00">Low 7.4</text>
<text text-anchor="start" x="484" y="-167.8" font-family="sans-serif" font-style="italic" font-size="9.00">Final 9</text>
</g>
<!-- Bits 5&#45;&#45;Structure 5 -->
<g id="edge10" class="edge"><title>Bits 5&#45;&#45;Structure 5</title>
<path fill="none" stroke="black" d="M527.268,-327.194C525.652,-339.202 524.023,-351.419 522.5,-363 513.142,-434.181 502.505,-518.877 497.869,-555.99"/>
</g>
<!-- Bits 5&#45;&#45;Start bit 5.1 -->
<g id="edge8" class="edge"><title>Bits 5&#45;&#45;Start bit 5.1</title>
<path fill="none" stroke="black" d="M480.911,-160.689C471.808,-147.678 463.08,-135.203 456.004,-125.089"/>
</g>
<!-- Bits 5&#45;&#45;Data bits 5.1 -->
<g id="edge9" class="edge"><title>Bits 5&#45;&#45;Data bits 5.1</title>
<path fill="none" stroke="black" d="M561.768,-160.689C565.446,-147.678 568.973,-135.203 571.832,-125.089"/>
</g>
<!-- Blocks 6&#45;&#45;Bits 5 -->
<g id="edge14" class="edge"><title>Blocks 6&#45;&#45;Bits 5</title>
<path fill="none" stroke="black" d="M567.062,-362.901C564.281,-351.42 561.322,-339.206 558.402,-327.156"/>
</g>
<!-- Device 2.2 -->
<g id="node15" class="node"><title>Device 2.2</title>
<path fill="lightgray" stroke="lightgray" d="M430,-1000C430,-1000 211,-1000 211,-1000 205,-1000 199,-994 199,-988 199,-988 199,-873 199,-873 199,-867 205,-861 211,-861 211,-861 430,-861 430,-861 436,-861 442,-867 442,-873 442,-873 442,-988 442,-988 442,-994 436,-1000 430,-1000"/>
<text text-anchor="start" x="207" y="-985.8" font-family="sans-serif" font-size="14.00">Device 2.2</text>
<text text-anchor="start" x="207" y="-975.8" font-family="sans-serif" font-style="italic" font-size="9.00">Take the logical addresses 10.2</text>
<text text-anchor="start" x="207" y="-966.8" font-family="sans-serif" font-style="italic" font-size="9.00">Declare the functionality 10.2</text>
<text text-anchor="start" x="207" y="-957.8" font-family="sans-serif" font-style="italic" font-size="9.00">Expose the functionality 10.2</text>
<text text-anchor="start" x="207" y="-948.8" font-family="sans-serif" font-style="italic" font-size="9.00">Advertise one instance of a particular functionality 10.2</text>
<text text-anchor="start" x="207" y="-939.8" font-family="sans-serif" font-style="italic" font-size="9.00">Supports messages 10.2</text>
<text text-anchor="start" x="207" y="-930.8" font-family="sans-serif" font-style="italic" font-size="9.00">Retains that address 10.2.1</text>
<text text-anchor="start" x="207" y="-921.8" font-family="sans-serif" font-style="italic" font-size="9.00">Keeps that address 10.2.1</text>
<text text-anchor="start" x="207" y="-912.8" font-family="sans-serif" font-style="italic" font-size="9.00">Sharing this address 10.2.1</text>
<text text-anchor="start" x="207" y="-903.8" font-family="sans-serif" font-style="italic" font-size="9.00">Lose its logical address 10.2.1</text>
<text text-anchor="start" x="207" y="-894.8" font-family="sans-serif" font-style="italic" font-size="9.00">Remember its previous logical address 10.2.1</text>
<text text-anchor="start" x="207" y="-885.8" font-family="sans-serif" font-style="italic" font-size="9.00">Disconnected or switched off 10.2.1</text>
<text text-anchor="start" x="207" y="-876.8" font-family="sans-serif" font-style="italic" font-size="9.00">Reconnected or switched on 10.2.1</text>
<text text-anchor="start" x="207" y="-867.8" font-family="sans-serif" font-style="italic" font-size="9.00">Polling process 10.2.1</text>
</g>
<!-- Device 2.2&#45;&#45;Initiator 2.2 -->
<g id="edge16" class="edge"><title>Device 2.2&#45;&#45;Initiator 2.2</title>
<path fill="none" stroke="black" d="M394.095,-860.747C405.857,-849.064 417.701,-836.867 428.5,-825 434.878,-817.991 441.378,-810.416 447.652,-802.843"/>
</g>
<!-- Device 2.2&#45;&#45;Followers 2.2 -->
<g id="edge17" class="edge"><title>Device 2.2&#45;&#45;Followers 2.2</title>
<path fill="none" stroke="black" d="M331.422,-860.953C333.526,-847.753 335.736,-833.88 337.861,-820.544"/>
</g>
<!-- Address 2.2 -->
<g id="node16" class="node"><title>Address 2.2</title>
<path fill="lightgray" stroke="lightgray" d="M245,-811.5C245,-811.5 12,-811.5 12,-811.5 6,-811.5 0,-805.5 0,-799.5 0,-799.5 0,-693.5 0,-693.5 0,-687.5 6,-681.5 12,-681.5 12,-681.5 245,-681.5 245,-681.5 251,-681.5 257,-687.5 257,-693.5 257,-693.5 257,-799.5 257,-799.5 257,-805.5 251,-811.5 245,-811.5"/>
<text text-anchor="start" x="8" y="-797.3" font-family="sans-serif" font-size="14.00">Address 2.2</text>
<text text-anchor="start" x="8" y="-787.3" font-family="sans-serif" font-style="italic" font-size="9.00">Physical 2.2</text>
<text text-anchor="start" x="8" y="-778.3" font-family="sans-serif" font-style="italic" font-size="9.00">Logical 2.2</text>
<text text-anchor="start" x="8" y="-769.3" font-family="sans-serif" font-style="italic" font-size="9.00">Clear 2.2</text>
<text text-anchor="start" x="8" y="-760.3" font-family="sans-serif" font-style="italic" font-size="9.00">Source 6</text>
<text text-anchor="start" x="8" y="-751.3" font-family="sans-serif" font-style="italic" font-size="9.00">Destination 6</text>
<text text-anchor="start" x="8" y="-742.3" font-family="sans-serif" font-style="italic" font-size="9.00">Physical Address Discovery 10.1</text>
<text text-anchor="start" x="8" y="-733.3" font-family="sans-serif" font-style="italic" font-size="9.00">Allocate 10.1</text>
<text text-anchor="start" x="8" y="-724.3" font-family="sans-serif" font-style="italic" font-size="9.00">Association between its logical and physical addresses 10.1</text>
<text text-anchor="start" x="8" y="-715.3" font-family="sans-serif" font-style="italic" font-size="9.00">Map of physical connections to logical addresses 10.1</text>
<text text-anchor="start" x="8" y="-706.3" font-family="sans-serif" font-style="italic" font-size="9.00">Defines a device type 10.2</text>
<text text-anchor="start" x="8" y="-697.3" font-family="sans-serif" font-style="italic" font-size="9.00">Use 10.2.1</text>
<text text-anchor="start" x="8" y="-688.3" font-family="sans-serif" font-style="italic" font-size="9.00">Type specific 10.2.1</text>
</g>
<!-- Device 2.2&#45;&#45;Address 2.2 -->
<g id="edge15" class="edge"><title>Device 2.2&#45;&#45;Address 2.2</title>
<path fill="none" stroke="black" d="M248.187,-860.953C231.178,-844.831 213.112,-827.705 196.31,-811.778"/>
</g>
</g>
</svg>
